<svg width="129" height="229" viewBox="0 0 129 229" fill="none" xmlns="http://www.w3.org/2000/svg">
<path d="M46.1835 2.95623C46.1165 2.61975 47.1886 2.08138 48.6627 1.74489C50.1368 1.40841 53.2861 1.27382 55.6982 1.40841C58.1104 1.543 62.5997 2.21597 65.749 2.88893C68.8982 3.5619 72.9185 4.77323 74.7946 5.64809C76.6038 6.45564 78.3459 7.2632 78.6139 7.39779C78.9489 7.46509 78.8819 6.99401 78.4799 6.25375C78.0779 5.51349 77.0058 4.10027 74.3256 1.20652L75.8667 1.00463C76.7378 0.937337 78.7479 1.6103 80.289 2.55245C81.8971 3.4946 83.5723 4.84053 83.9743 5.58079C84.4433 6.32105 85.3814 6.92672 85.9844 6.92672C86.9895 6.92672 87.0565 6.65753 86.5205 5.58079C86.1185 4.84053 85.9844 3.76379 86.1855 3.22541C86.3865 2.68704 86.7885 2.21597 87.1905 2.21597C87.5926 2.21597 91.8809 5.04242 96.7052 8.40724C101.597 11.8394 107.962 16.9539 110.91 19.713C113.791 22.4722 117.477 26.5773 119.018 28.798C120.559 31.0188 122.502 34.1818 123.373 35.8642C124.177 37.5466 125.316 40.5749 125.986 42.5938C126.589 44.6127 127.125 47.8429 127.058 49.6599C126.991 51.8134 126.321 54.3034 125.115 56.7261C123.373 60.2255 123.306 60.9657 123.038 71.8677C122.904 78.1263 122.636 84.6541 122.435 86.3365C122.234 88.0189 121.966 90.4415 121.765 91.7202C121.631 92.9988 121.363 95.8253 121.095 97.9787C120.76 101.411 120.827 101.815 122.033 102.151C122.77 102.353 123.909 103.228 124.512 104.17C125.708 105.838 125.652 105.918 123.952 108.348L123.909 108.41C122.904 109.756 121.832 111.64 121.497 112.582C121.095 113.524 120.425 119.244 120.023 125.368C119.42 133.579 119.353 139.635 119.889 148.586C120.291 155.45 120.358 162.718 120.023 165.41C119.755 168.034 118.884 172.476 118.08 175.37C117.276 178.196 115.802 182.436 114.797 184.724C113.724 187.079 111.58 190.915 109.972 193.338C108.364 195.76 103.674 201.144 99.6534 205.384C95.5661 209.556 89.6697 214.94 86.5205 217.295C83.3713 219.651 78.5469 222.814 75.7997 224.227C73.0525 225.64 69.8363 227.053 68.7642 227.322C67.6921 227.659 65.816 227.928 64.7439 227.995C63.6718 228.063 60.7906 227.39 58.3784 226.515C55.9663 225.64 53.5541 224.429 53.018 223.958C52.482 223.419 51.7449 223.015 51.3429 223.015C50.9409 223.015 48.4617 221.468 45.8485 219.583C43.1683 217.766 40.5551 215.613 40.1531 214.873C39.6841 214.132 39.148 213.661 38.947 213.863C38.746 214.065 35.1277 210.633 30.9064 206.326C26.1491 201.481 21.5257 195.895 18.9796 191.992C16.6344 188.492 13.8872 183.243 12.8151 180.35C11.676 177.523 10.3359 172.543 9.73289 169.313C8.99583 165.073 8.86182 161.372 9.12984 156.325C9.33086 152.422 9.59888 143.942 9.59888 137.482C9.59888 131.021 9.46487 124.022 9.19685 122.004C8.99584 119.985 8.4598 116.485 8.05777 114.264C7.72274 112.044 6.78468 109.419 6.04762 108.41C5.37757 107.333 4.77453 105.852 4.77453 105.045C4.77453 104.103 5.7126 102.689 9.39787 99.4593L8.5268 94.412C7.99076 91.6529 7.1867 85.8654 6.78467 81.6257C6.24863 76.9823 6.04762 70.6564 6.31564 65.8111C6.65066 59.0141 6.51665 57.0625 5.44458 53.6977C4.64052 51.0732 4.23849 47.9102 4.3055 44.7473C4.43951 41.1133 4.23849 39.9692 3.63545 40.2384C3.16641 40.4403 2.29534 40.4403 1.75931 40.2384C1.08926 40.0365 0.888243 39.4309 1.22327 38.4214C1.42428 37.5466 2.69738 35.1912 3.97047 33.1723C5.24356 31.1534 6.58366 28.7307 6.91868 27.7886C7.32071 26.51 8.66081 25.6351 12.0111 24.2892C14.4902 23.2797 16.9024 22.4049 17.3714 22.4049C17.7735 22.4049 18.1755 22.1357 18.1755 21.7319C18.1755 21.3281 17.6395 20.9244 17.0364 20.7225C16.3664 20.5879 15.2273 19.8476 14.4902 19.1074C13.1501 17.8287 13.1501 17.7614 16.5004 17.0885C18.3095 16.6847 20.9227 16.2809 22.1958 16.079C23.4689 15.8771 25.01 15.608 25.546 15.4734C26.0821 15.3388 27.8912 14.8677 29.5663 14.3966C31.2415 13.8582 32.8496 13.4545 33.2516 13.3199C33.6536 13.2526 35.1947 12.9161 36.8029 12.5796C38.344 12.2431 39.6171 11.7721 39.6171 11.5029C39.6171 11.1664 39.416 10.9645 39.148 10.9645C38.813 10.9645 37.5399 10.0896 36.2668 9.0129C34.1227 7.2632 33.9887 6.99401 34.9267 5.98457C35.7308 5.10971 37.1379 4.84053 41.7612 4.90782C45.2455 4.90782 47.6577 4.63864 47.6577 4.23486C47.6577 3.89838 47.3896 3.5619 46.9876 3.5619C46.5856 3.5619 46.2505 3.29271 46.1835 2.95623Z" fill="black" stroke="#FF7700" stroke-width="2"/>
<path d="M69.3473 17.9735C66.594 15.7675 64.1093 13.6952 63.7064 13.361C63.3035 12.9599 63.9079 12.893 65.3852 13.1604C66.6612 13.361 69.3473 14.4306 71.3619 15.4333C73.3765 16.436 76.3984 18.4414 78.0772 19.979C79.8232 21.5165 82.2407 24.6583 83.5838 27.3323C84.9269 29.8725 86.2699 33.1481 87.0086 37.2926L84.7926 34.2845C83.651 32.6133 80.7634 29.1372 78.4801 26.5969C76.1969 24.0567 72.1006 20.1127 69.3473 17.9735Z" fill="#F3F3F3"/>
<path d="M28.6523 54.0716C27.0407 52.4003 25.2275 49.9938 24.6231 48.7905C23.6158 46.7851 23.8173 46.9188 27.8465 50.3949C30.1969 52.4003 33.2188 54.8737 34.4947 55.8096C35.7706 56.8123 38.9268 58.6172 41.5458 59.8874C44.1648 61.1575 47.7911 62.695 49.6042 63.2298C51.4845 63.8314 54.0363 64.5667 55.3122 64.8341C56.5881 65.1015 59.9458 65.3021 62.6991 65.3021C65.4524 65.3021 68.7429 65.1015 69.9517 64.8341C71.0933 64.5667 74.921 63.4972 78.2787 62.4276C81.7035 61.2912 86.4714 60.021 88.8889 59.4863C91.3064 58.9515 94.7984 58.283 96.6115 58.0156C98.4247 57.6814 102.185 57.4808 104.871 57.414C107.625 57.3471 110.109 57.6145 110.378 58.0156C110.714 58.4167 111.452 61.5586 111.99 65.0347C112.594 68.5108 113.333 76.332 113.736 82.4152C114.206 88.4984 114.542 93.5789 114.542 93.7794C114.542 93.9799 114.542 95.2501 114.407 99.1273L109.572 98.6593C106.886 98.3919 99.2305 98.1914 92.5823 98.1914C85.9342 98.1914 73.5108 98.2582 65.0495 98.2582H38.8597C32.9502 98.1914 25.8319 98.2582 23.0786 98.3919C20.3253 98.5256 17.2363 98.5925 16.229 98.5256C14.3487 98.4588 14.3487 98.4588 14.6844 94.5816C14.8859 92.5093 15.2217 84.7549 15.4903 77.4016C15.6917 70.0483 15.9604 62.6281 15.9604 60.9569C16.0275 58.6841 16.229 57.9488 16.9005 58.283C17.3706 58.4835 17.9078 59.0852 18.0421 59.4863C18.2436 59.9542 18.848 60.3553 19.3852 60.3553C19.9224 60.3553 20.3925 60.5558 20.3925 60.8232C20.3253 61.1575 22.6757 62.2939 25.5633 63.4972C28.4509 64.6336 32.6815 65.9037 35.0319 66.3048C37.3151 66.7059 39.9341 66.9064 40.8743 66.7059C42.1502 66.4385 42.4188 66.1042 42.083 65.3021C41.7473 64.7004 39.2626 62.6281 36.5093 60.6895C33.756 58.7509 30.1969 55.8096 28.6523 54.0716Z" fill="#F3F3F3"/>
<path d="M59.6772 112.163C60.3487 110.358 61.2217 108.62 61.6246 108.352C62.0276 108.018 63.5049 107.884 64.9152 107.951C66.8626 108.085 67.7356 108.553 68.4071 109.823C68.8772 110.759 70.0188 113.299 70.8918 115.505C71.7648 117.644 73.5108 120.652 74.8539 122.19C76.1969 123.661 78.3458 125.399 79.7561 126C81.0991 126.669 82.4422 127.07 82.8451 126.869C83.248 126.669 83.5838 126.802 83.7181 127.137C83.7853 127.538 85.9342 128.139 88.5531 128.54C91.1721 128.942 94.4626 129.075 95.94 128.875C97.4174 128.607 100.305 128.006 102.32 127.471C104.804 126.736 106.819 125.599 108.565 123.995C109.908 122.658 111.05 120.987 111.05 120.385C111.05 119.717 111.251 119.048 111.587 118.914C111.855 118.781 112.661 116.842 113.4 114.569C114.139 112.296 114.877 110.491 115.079 110.491C115.28 110.491 115.616 112.029 115.885 113.968C116.287 116.508 116.019 119.65 115.012 124.864C114.273 128.942 112.728 136.161 111.587 140.907C110.445 145.654 108.901 150.4 108.229 151.403C107.558 152.472 107.02 153.408 107.02 153.609C107.02 153.809 106.819 153.943 106.55 154.01C106.214 154.077 104.871 154.678 103.528 155.347C102.118 156.015 100.372 156.617 99.6335 156.617C98.8948 156.617 97.1488 156.015 95.8057 155.347C94.3955 154.611 90.7021 151.871 87.5458 149.263C84.3896 146.59 80.7634 143.916 79.4874 143.247C78.2115 142.579 75.4582 141.576 73.4436 141.041C70.8918 140.306 67.5341 140.038 62.6991 140.239C58.8042 140.306 54.9093 140.774 53.9692 141.175C53.0743 141.557 51.8145 142.241 51.0582 142.652L50.9473 142.712C50.2086 143.18 48.3954 144.384 46.9181 145.319C45.4407 146.322 41.7473 149.063 38.7253 151.536C33.5545 155.681 32.9502 155.948 29.7939 155.948C26.9735 155.948 26.1005 155.614 24.0188 153.742C22.5414 152.472 20.3253 149.063 18.5122 145.253C16.7662 141.776 15.2888 138.3 15.2217 137.565C15.0874 136.83 14.8859 135.158 14.6844 133.888C14.5501 132.618 14.0801 127.605 13.6771 122.858C13.3414 118.112 13.0056 113.099 13.0728 111.828C13.0728 109.89 13.4085 110.425 14.8859 115.037C15.9604 118.38 17.572 121.655 18.9151 123.259C20.4596 125.131 22.0713 126.201 24.6231 126.936C26.5034 127.538 29.4582 128.206 31.137 128.474C32.8159 128.674 35.8378 128.808 37.8524 128.808C39.867 128.808 43.4932 128.206 45.8436 127.471C48.3954 126.736 51.1487 125.265 52.8947 123.794C54.3721 122.524 56.3195 120.118 57.0582 118.446C57.8641 116.842 59.0728 114.034 59.6772 112.163Z" fill="#F3F3F3"/>
<path d="M47.7911 163.502C49.537 162.499 53.3648 160.828 56.3195 159.825C59.2743 158.823 62.6991 158.021 63.9079 157.954C65.0495 157.954 67.6684 158.355 69.6159 158.89C71.4962 159.424 74.6524 160.36 76.4655 160.962C78.3458 161.564 80.7634 162.566 81.8378 163.101C82.9123 163.703 84.121 164.705 84.4568 165.24C84.8597 165.842 85.0612 167.379 84.9269 168.649C84.8597 169.92 84.6582 171.524 84.4568 172.126C84.3225 172.794 83.9196 173.329 83.5166 173.329C83.1137 173.329 82.8451 172.928 82.8451 172.46C82.8451 172.059 81.9721 170.521 80.8305 169.117C79.7561 167.78 78.5473 166.778 78.1444 166.978C77.7415 167.179 77.4728 167.112 77.4728 166.778C77.4728 166.51 75.9283 165.708 73.9809 164.973C71.2276 163.903 68.9444 163.636 63.7064 163.703C59.14 163.77 56.0509 164.171 53.9692 164.906C52.2903 165.574 50.0071 167.045 48.8655 168.181C47.7239 169.385 46.2465 171.39 44.4334 175L43.4932 173.329C43.0232 172.393 42.6202 171.123 42.5531 170.521C42.5531 169.853 43.0232 168.382 43.5604 167.312C44.0976 166.243 45.9779 164.505 47.7911 163.502Z" fill="#F3F3F3"/>
</svg>
