<svg width="674" height="271" viewBox="0 0 674 271" fill="none" xmlns="http://www.w3.org/2000/svg">
<path d="M620.054 200.278V182.863L625.292 181.859V157.112L620.054 156.109V138.825H674V161.171H668.021C666.071 159.717 663.685 158.553 660.863 157.68C658.04 156.807 654.941 156.37 651.566 156.37V165.842L663.656 163.266V175.705L651.566 173.087V182.732C654.971 182.732 658.084 182.31 660.906 181.467C663.758 180.623 666.129 179.444 668.021 177.931H674V200.278H620.054Z" fill="#FF7700"/>
<path d="M543.064 200.278V182.863L548.301 181.859V155.541L543.064 154.537V138.825H590.855C595.947 139.902 600.414 141.618 604.255 143.975C608.124 146.303 611.136 149.475 613.289 153.49C615.471 157.476 616.563 162.554 616.563 168.722C616.563 174.803 615.53 179.881 613.464 183.954C611.398 187.999 608.474 191.229 604.691 193.644C600.937 196.03 596.5 197.732 591.379 198.75C586.258 199.769 580.657 200.278 574.576 200.278H543.064ZM574.576 181.859H578.591C581.792 181.859 584.236 181.438 585.923 180.594C587.611 179.75 588.76 178.368 589.371 176.447C589.982 174.527 590.288 171.952 590.288 168.722C590.288 165.551 589.982 163.005 589.371 161.084C588.76 159.164 587.611 157.767 585.923 156.894C584.265 155.992 581.821 155.541 578.591 155.541H574.576V181.859Z" fill="#FF7700"/>
<path d="M500.466 200.278V182.863L505.703 181.859V157.025L500.466 156.021V138.825H537.215V156.021L531.978 157.025V181.859L537.215 182.863V200.278H500.466Z" fill="#FF7700"/>
<path d="M467.513 201.063C462.276 201.063 457.678 200.714 453.721 200.016C449.793 199.318 446.185 198.139 442.897 196.481V181.336H455.249C456.209 182.849 457.417 184.158 458.871 185.264C460.355 186.37 462.159 186.922 464.283 186.922C466.349 186.922 467.731 186.268 468.43 184.958C469.157 183.649 469.521 181.889 469.521 179.677C465.913 179.357 462.407 178.819 459.002 178.062C455.598 177.306 452.543 176.171 449.837 174.658C447.16 173.145 445.021 171.108 443.421 168.548C441.85 165.987 441.064 162.743 441.064 158.815C441.064 153.403 442.257 149.125 444.643 145.983C447.058 142.811 450.361 140.556 454.551 139.218C458.77 137.85 463.556 137.167 468.91 137.167C474.002 137.167 478.541 137.632 482.527 138.563C486.543 139.465 490.223 140.687 493.57 142.229V157.505H480.345C479.53 155.934 478.468 154.537 477.159 153.315C475.85 152.093 474.191 151.482 472.183 151.482C470.059 151.482 468.619 152.268 467.862 153.839C467.106 155.41 466.728 157.331 466.728 159.6C470.83 159.746 474.642 160.168 478.163 160.866C481.683 161.535 484.768 162.655 487.416 164.227C490.063 165.769 492.115 167.893 493.57 170.599C495.054 173.305 495.796 176.753 495.796 180.943C495.796 186.209 494.544 190.298 492.042 193.207C489.54 196.117 486.15 198.154 481.873 199.318C477.624 200.482 472.838 201.063 467.513 201.063Z" fill="#FF7700"/>
<path d="M255.259 200.278V182.863L260.497 181.86V155.061C259.071 155.061 257.631 155.294 256.176 155.76C254.75 156.225 253.557 156.909 252.597 157.811C251.637 158.713 251.157 159.833 251.157 161.172H243.868V138.825H303.4V161.172H296.111C296.111 159.833 295.617 158.713 294.627 157.811C293.667 156.909 292.474 156.225 291.049 155.76C289.623 155.294 288.197 155.061 286.771 155.061V181.86L292.009 182.863V200.278H255.259Z" fill="#FF7700"/>
<path d="M211.265 201.064C206.027 201.064 201.43 200.714 197.473 200.016C193.544 199.318 189.936 198.139 186.648 196.481V181.336H199C199.96 182.849 201.168 184.158 202.623 185.264C204.107 186.37 205.911 186.922 208.035 186.922C210.101 186.922 211.483 186.268 212.181 184.958C212.909 183.649 213.272 181.889 213.272 179.677C209.664 179.357 206.158 178.819 202.754 178.062C199.349 177.306 196.294 176.171 193.588 174.658C190.911 173.145 188.773 171.108 187.172 168.548C185.601 165.987 184.815 162.743 184.815 158.815C184.815 153.403 186.008 149.125 188.394 145.983C190.809 142.811 194.112 140.556 198.302 139.218C202.521 137.85 207.307 137.167 212.661 137.167C217.753 137.167 222.292 137.632 226.279 138.563C230.294 139.465 233.975 140.687 237.321 142.229V157.505H224.096C223.282 155.934 222.22 154.538 220.91 153.315C219.601 152.093 217.942 151.482 215.935 151.482C213.811 151.482 212.37 152.268 211.614 153.839C210.857 155.41 210.479 157.331 210.479 159.6C214.582 159.746 218.393 160.168 221.914 160.866C225.435 161.535 228.519 162.656 231.167 164.227C233.815 165.769 235.866 167.893 237.321 170.599C238.805 173.305 239.547 176.753 239.547 180.943C239.547 186.21 238.296 190.298 235.793 193.207C233.291 196.117 229.901 198.154 225.624 199.318C221.376 200.482 216.589 201.064 211.265 201.064Z" fill="#FF7700"/>
<path d="M125.763 200.278V182.863L131.001 181.86V157.113L125.763 156.109V138.825H179.709V161.172H173.729C171.78 159.717 169.394 158.553 166.572 157.68C163.749 156.807 160.65 156.371 157.275 156.371V165.842L169.365 163.267V175.706L157.275 173.087V182.732C160.679 182.732 163.793 182.311 166.615 181.467C169.467 180.623 171.838 179.445 173.729 177.931H179.709V200.278H125.763Z" fill="#FF7700"/>
<path d="M23.0653 200.322L6.30539 156.982L0.0640869 156.021V138.825H39.9124V156.021L35.3733 156.982L42.4875 179.852L49.6017 156.982L45.0626 156.021V138.825H84.9109V156.021L80.4154 156.982L87.486 179.852L94.6002 156.982L90.0611 156.021V138.607H120.264V156.021L114.066 156.982L97.3062 200.322H68.1074L60.1639 176.709L52.3077 200.322H23.0653Z" fill="#FF7700"/>
<path d="M355.184 2.95623C355.117 2.61975 356.189 2.08138 357.663 1.74489C359.137 1.40841 362.286 1.27382 364.698 1.40841C367.11 1.543 371.6 2.21597 374.749 2.88893C377.898 3.5619 381.918 4.77323 383.795 5.64809C385.604 6.45564 387.346 7.2632 387.614 7.39779C387.949 7.46509 387.882 6.99401 387.48 6.25375C387.078 5.51349 386.006 4.10027 383.326 1.20652L384.867 1.00463C385.738 0.937337 387.748 1.6103 389.289 2.55245C390.897 3.4946 392.572 4.84053 392.974 5.58079C393.443 6.32105 394.381 6.92672 394.984 6.92672C395.99 6.92672 396.057 6.65753 395.52 5.58079C395.118 4.84053 394.984 3.76379 395.185 3.22541C395.386 2.68704 395.789 2.21597 396.191 2.21597C396.593 2.21597 400.881 5.04242 405.705 8.40724C410.597 11.8394 416.962 16.9539 419.91 19.713C422.791 22.4722 426.477 26.5773 428.018 28.798C429.559 31.0188 431.502 34.1818 432.373 35.8642C433.177 37.5466 434.316 40.5749 434.986 42.5938C435.589 44.6127 436.125 47.8429 436.058 49.6599C435.991 51.8134 435.321 54.3034 434.115 56.7261C432.373 60.2255 432.306 60.9657 432.038 71.8677C431.904 78.1263 431.636 84.6541 431.435 86.3365C431.234 88.0189 430.966 90.4415 430.765 91.7202C430.631 92.9988 430.363 95.8253 430.095 97.9787C429.76 101.411 429.827 101.815 431.033 102.151C431.77 102.353 432.909 103.228 433.512 104.17C434.708 105.838 434.652 105.918 432.952 108.348L432.909 108.41C431.904 109.756 430.832 111.64 430.497 112.582C430.095 113.524 429.425 119.244 429.023 125.368C428.42 133.579 428.353 139.635 428.889 148.586C429.291 155.45 429.358 162.718 429.023 165.41C428.755 168.034 427.884 172.476 427.08 175.37C426.276 178.196 424.802 182.436 423.797 184.724C422.724 187.079 420.58 190.915 418.972 193.338C417.364 195.76 412.674 201.144 408.653 205.384C404.566 209.556 398.67 214.94 395.52 217.295C392.371 219.651 387.547 222.814 384.8 224.227C382.052 225.64 378.836 227.053 377.764 227.322C376.692 227.659 374.816 227.928 373.744 227.995C372.672 228.063 369.791 227.39 367.378 226.515C364.966 225.64 362.554 224.429 362.018 223.958C361.482 223.419 360.745 223.015 360.343 223.015C359.941 223.015 357.462 221.468 354.849 219.583C352.168 217.766 349.555 215.613 349.153 214.873C348.684 214.132 348.148 213.661 347.947 213.863C347.746 214.065 344.128 210.633 339.906 206.326C335.149 201.481 330.526 195.895 327.98 191.992C325.634 188.492 322.887 183.243 321.815 180.35C320.676 177.523 319.336 172.543 318.733 169.313C317.996 165.073 317.862 161.372 318.13 156.325C318.331 152.422 318.599 143.942 318.599 137.482C318.599 131.021 318.465 124.022 318.197 122.004C317.996 119.985 317.46 116.485 317.058 114.264C316.723 112.044 315.785 109.419 315.048 108.41C314.378 107.333 313.775 105.852 313.775 105.045C313.775 104.103 314.713 102.689 318.398 99.4593L317.527 94.412C316.991 91.6529 316.187 85.8654 315.785 81.6257C315.249 76.9823 315.048 70.6564 315.316 65.8111C315.651 59.0141 315.517 57.0625 314.445 53.6977C313.641 51.0732 313.238 47.9102 313.305 44.7473C313.44 41.1133 313.238 39.9692 312.635 40.2384C312.166 40.4403 311.295 40.4403 310.759 40.2384C310.089 40.0365 309.888 39.4309 310.223 38.4214C310.424 37.5466 311.697 35.1912 312.97 33.1723C314.244 31.1534 315.584 28.7307 315.919 27.7886C316.321 26.51 317.661 25.6351 321.011 24.2892C323.49 23.2797 325.902 22.4049 326.371 22.4049C326.773 22.4049 327.176 22.1357 327.176 21.7319C327.176 21.3281 326.639 20.9244 326.036 20.7225C325.366 20.5879 324.227 19.8476 323.49 19.1074C322.15 17.8287 322.15 17.7614 325.5 17.0885C327.31 16.6847 329.923 16.2809 331.196 16.079C332.469 15.8771 334.01 15.608 334.546 15.4734C335.082 15.3388 336.891 14.8677 338.566 14.3966C340.241 13.8582 341.85 13.4545 342.252 13.3199C342.654 13.2526 344.195 12.9161 345.803 12.5796C347.344 12.2431 348.617 11.7721 348.617 11.5029C348.617 11.1664 348.416 10.9645 348.148 10.9645C347.813 10.9645 346.54 10.0896 345.267 9.0129C343.123 7.2632 342.989 6.99401 343.927 5.98457C344.731 5.10971 346.138 4.84053 350.761 4.90782C354.245 4.90782 356.658 4.63864 356.658 4.23486C356.658 3.89838 356.39 3.5619 355.988 3.5619C355.586 3.5619 355.251 3.29271 355.184 2.95623Z" fill="black" stroke="#FF7700" stroke-width="2"/>
<path d="M378.347 17.9735C375.594 15.7675 373.109 13.6952 372.706 13.361C372.303 12.9599 372.908 12.893 374.385 13.1604C375.661 13.361 378.347 14.4306 380.362 15.4333C382.376 16.436 385.398 18.4414 387.077 19.979C388.823 21.5165 391.241 24.6583 392.584 27.3323C393.927 29.8725 395.27 33.1481 396.009 37.2926L393.793 34.2845C392.651 32.6133 389.763 29.1372 387.48 26.5969C385.197 24.0567 381.101 20.1127 378.347 17.9735Z" fill="#F3F3F3"/>
<path d="M337.652 54.0716C336.041 52.4003 334.228 49.9938 333.623 48.7905C332.616 46.7851 332.817 46.9188 336.847 50.3949C339.197 52.4003 342.219 54.8737 343.495 55.8096C344.771 56.8123 347.927 58.6172 350.546 59.8874C353.165 61.1575 356.791 62.695 358.604 63.2298C360.484 63.8314 363.036 64.5667 364.312 64.8341C365.588 65.1015 368.946 65.3021 371.699 65.3021C374.452 65.3021 377.743 65.1015 378.952 64.8341C380.093 64.5667 383.921 63.4972 387.279 62.4276C390.703 61.2912 395.471 60.021 397.889 59.4863C400.306 58.9515 403.798 58.283 405.612 58.0156C407.425 57.6814 411.185 57.4808 413.871 57.414C416.625 57.3471 419.109 57.6145 419.378 58.0156C419.714 58.4167 420.452 61.5586 420.99 65.0347C421.594 68.5108 422.333 76.332 422.736 82.4152C423.206 88.4984 423.542 93.5789 423.542 93.7794C423.542 93.9799 423.542 95.2501 423.407 99.1273L418.572 98.6593C415.886 98.3919 408.231 98.1914 401.582 98.1914C394.934 98.1914 382.511 98.2582 374.049 98.2582H347.86C341.95 98.1914 334.832 98.2582 332.079 98.3919C329.325 98.5256 326.236 98.5925 325.229 98.5256C323.349 98.4588 323.349 98.4588 323.684 94.5816C323.886 92.5093 324.222 84.7549 324.49 77.4016C324.692 70.0483 324.96 62.6281 324.96 60.9569C325.028 58.6841 325.229 57.9488 325.901 58.283C326.371 58.4835 326.908 59.0852 327.042 59.4863C327.244 59.9542 327.848 60.3553 328.385 60.3553C328.922 60.3553 329.392 60.5558 329.392 60.8232C329.325 61.1575 331.676 62.2939 334.563 63.4972C337.451 64.6336 341.682 65.9037 344.032 66.3048C346.315 66.7059 348.934 66.9064 349.874 66.7059C351.15 66.4385 351.419 66.1042 351.083 65.3021C350.747 64.7004 348.263 62.6281 345.509 60.6895C342.756 58.7509 339.197 55.8096 337.652 54.0716Z" fill="#F3F3F3"/>
<path d="M368.677 112.163C369.349 110.358 370.222 108.62 370.625 108.352C371.028 108.018 372.505 107.884 373.915 107.951C375.863 108.085 376.736 108.553 377.407 109.823C377.877 110.759 379.019 113.299 379.892 115.505C380.765 117.644 382.511 120.652 383.854 122.19C385.197 123.661 387.346 125.399 388.756 126C390.099 126.669 391.442 127.07 391.845 126.869C392.248 126.669 392.584 126.802 392.718 127.137C392.785 127.538 394.934 128.139 397.553 128.54C400.172 128.942 403.463 129.075 404.94 128.875C406.417 128.607 409.305 128.006 411.32 127.471C413.804 126.736 415.819 125.599 417.565 123.995C418.908 122.658 420.05 120.987 420.05 120.385C420.05 119.717 420.251 119.048 420.587 118.914C420.855 118.781 421.661 116.842 422.4 114.569C423.139 112.296 423.877 110.491 424.079 110.491C424.28 110.491 424.616 112.029 424.885 113.968C425.287 116.508 425.019 119.65 424.012 124.864C423.273 128.942 421.728 136.161 420.587 140.907C419.445 145.654 417.901 150.4 417.229 151.403C416.558 152.472 416.02 153.408 416.02 153.609C416.02 153.809 415.819 153.943 415.55 154.01C415.214 154.077 413.871 154.678 412.528 155.347C411.118 156.015 409.372 156.617 408.633 156.617C407.895 156.617 406.149 156.015 404.806 155.347C403.395 154.611 399.702 151.871 396.546 149.263C393.39 146.59 389.763 143.916 388.487 143.247C387.212 142.579 384.458 141.576 382.444 141.041C379.892 140.306 376.534 140.038 371.699 140.239C367.804 140.306 363.909 140.774 362.969 141.175C362.074 141.557 360.814 142.241 360.058 142.652L359.947 142.712C359.209 143.18 357.395 144.384 355.918 145.319C354.441 146.322 350.747 149.063 347.725 151.536C342.555 155.681 341.95 155.948 338.794 155.948C335.974 155.948 335.101 155.614 333.019 153.742C331.541 152.472 329.325 149.063 327.512 145.253C325.766 141.776 324.289 138.3 324.222 137.565C324.087 136.83 323.886 135.158 323.684 133.888C323.55 132.618 323.08 127.605 322.677 122.858C322.341 118.112 322.006 113.099 322.073 111.828C322.073 109.89 322.409 110.425 323.886 115.037C324.96 118.38 326.572 121.655 327.915 123.259C329.46 125.131 331.071 126.201 333.623 126.936C335.503 127.538 338.458 128.206 340.137 128.474C341.816 128.674 344.838 128.808 346.852 128.808C348.867 128.808 352.493 128.206 354.844 127.471C357.395 126.736 360.149 125.265 361.895 123.794C363.372 122.524 365.32 120.118 366.058 118.446C366.864 116.842 368.073 114.034 368.677 112.163Z" fill="#F3F3F3"/>
<path d="M356.791 163.502C358.537 162.499 362.365 160.828 365.32 159.825C368.274 158.823 371.699 158.021 372.908 157.954C374.049 157.954 376.668 158.355 378.616 158.89C380.496 159.424 383.652 160.36 385.466 160.962C387.346 161.564 389.763 162.566 390.838 163.101C391.912 163.703 393.121 164.705 393.457 165.24C393.86 165.842 394.061 167.379 393.927 168.649C393.86 169.92 393.658 171.524 393.457 172.126C393.322 172.794 392.92 173.329 392.517 173.329C392.114 173.329 391.845 172.928 391.845 172.46C391.845 172.059 390.972 170.521 389.831 169.117C388.756 167.78 387.547 166.778 387.144 166.978C386.741 167.179 386.473 167.112 386.473 166.778C386.473 166.51 384.928 165.708 382.981 164.973C380.228 163.903 377.944 163.636 372.706 163.703C368.14 163.77 365.051 164.171 362.969 164.906C361.29 165.574 359.007 167.045 357.866 168.181C356.724 169.385 355.247 171.39 353.433 175L352.493 173.329C352.023 172.393 351.62 171.123 351.553 170.521C351.553 169.853 352.023 168.382 352.56 167.312C353.098 166.243 354.978 164.505 356.791 163.502Z" fill="#F3F3F3"/>
<path d="M107.995 257.271V251.471L109.739 251.136V242.37L107.995 242.035V236.802H125.644C126.914 237.102 127.946 237.601 128.741 238.299C129.535 238.997 129.933 240.073 129.933 241.527C129.933 242.03 129.88 242.578 129.773 243.169C129.676 243.761 129.487 244.323 129.206 244.856C128.925 245.379 128.523 245.82 127.999 246.179C127.476 246.528 126.793 246.722 125.949 246.76C126.919 246.809 127.81 246.983 128.624 247.284C129.439 247.574 130.093 248.03 130.587 248.65C131.081 249.271 131.329 250.099 131.329 251.136C131.329 252.648 131.028 253.855 130.427 254.756C129.836 255.648 128.983 256.293 127.868 256.69C126.754 257.078 125.416 257.271 123.856 257.271H107.995ZM118.491 245.321H119.771C120.672 245.321 121.365 245.195 121.85 244.943C122.334 244.681 122.576 244.09 122.576 243.169C122.576 242.297 122.324 241.749 121.82 241.527C121.316 241.304 120.633 241.192 119.771 241.192H118.491V245.321ZM118.491 252.299H119.771C120.672 252.299 121.365 252.169 121.85 251.907C122.334 251.645 122.576 251.054 122.576 250.133C122.576 249.261 122.324 248.718 121.82 248.505C121.316 248.282 120.633 248.171 119.771 248.171H118.491V252.299ZM153.465 257.271V250.526L155.151 250.191L159.178 236.802H170.46L174.516 250.191L176.188 250.526V257.271H168.41L167.683 253.826H161.969L161.243 257.271H153.465ZM162.856 249.232H166.796L164.819 241.192L162.856 249.232ZM198.847 257.271V251.471L200.592 251.136V242.864L198.847 242.53V236.802H210.754C212.014 236.802 213.24 236.845 214.432 236.932C215.625 237.02 216.715 237.213 217.703 237.514C218.692 237.814 219.511 238.27 220.16 238.881C220.82 239.491 221.241 240.32 221.425 241.367C221.522 241.909 221.571 242.505 221.571 243.155C221.571 244.25 221.391 245.137 221.033 245.815C220.684 246.494 220.199 247.041 219.579 247.458C218.959 247.875 218.237 248.243 217.413 248.563C217.897 249.523 218.542 250.463 219.346 251.383C220.151 252.295 220.892 253.138 221.571 253.913V257.271H212.877C212.286 256.167 211.709 255.013 211.147 253.811C210.594 252.6 210.153 251.306 209.824 249.93H209.344V257.271H198.847ZM209.344 245.99C210.459 245.99 211.321 245.83 211.932 245.51C212.542 245.19 212.848 244.473 212.848 243.358C212.848 242.244 212.538 241.522 211.917 241.192C211.307 240.863 210.449 240.698 209.344 240.698V245.99ZM244.259 257.271V251.471L246.004 251.136V242.37L244.259 242.035V236.802H261.909C263.178 237.102 264.211 237.601 265.005 238.299C265.8 238.997 266.197 240.073 266.197 241.527C266.197 242.03 266.144 242.578 266.038 243.169C265.941 243.761 265.752 244.323 265.471 244.856C265.189 245.379 264.787 245.82 264.264 246.179C263.74 246.528 263.057 246.722 262.214 246.76C263.183 246.809 264.075 246.983 264.889 247.284C265.703 247.574 266.357 248.03 266.852 248.65C267.346 249.271 267.593 250.099 267.593 251.136C267.593 252.648 267.293 253.855 266.692 254.756C266.101 255.648 265.248 256.293 264.133 256.69C263.018 257.078 261.681 257.271 260.12 257.271H244.259ZM254.756 245.321H256.035C256.937 245.321 257.63 245.195 258.114 244.943C258.599 244.681 258.841 244.09 258.841 243.169C258.841 242.297 258.589 241.749 258.085 241.527C257.581 241.304 256.898 241.192 256.035 241.192H254.756V245.321ZM254.756 252.299H256.035C256.937 252.299 257.63 252.169 258.114 251.907C258.599 251.645 258.841 251.054 258.841 250.133C258.841 249.261 258.589 248.718 258.085 248.505C257.581 248.282 256.898 248.171 256.035 248.171H254.756V252.299ZM289.962 257.271V251.471L291.706 251.136V242.893L289.962 242.559V236.802H307.931V244.245H305.939C305.29 243.761 304.495 243.373 303.555 243.082C302.615 242.791 301.583 242.646 300.458 242.646V245.801L304.486 244.943V249.086L300.458 248.214V251.427C301.592 251.427 302.629 251.287 303.57 251.005C304.519 250.724 305.309 250.332 305.939 249.828H307.931V257.271H289.962ZM330.838 257.271V251.471L332.582 251.136V242.864L330.838 242.53V236.802H342.745C344.005 236.802 345.231 236.845 346.423 236.932C347.615 237.02 348.705 237.213 349.694 237.514C350.682 237.814 351.501 238.27 352.151 238.881C352.81 239.491 353.231 240.32 353.416 241.367C353.513 241.909 353.561 242.505 353.561 243.155C353.561 244.25 353.382 245.137 353.023 245.815C352.674 246.494 352.19 247.041 351.569 247.458C350.949 247.875 350.227 248.243 349.403 248.563C349.888 249.523 350.532 250.463 351.337 251.383C352.141 252.295 352.883 253.138 353.561 253.913V257.271H344.867C344.276 256.167 343.699 255.013 343.137 253.811C342.585 252.6 342.144 251.306 341.814 249.93H341.334V257.271H330.838ZM341.334 245.99C342.449 245.99 343.312 245.83 343.922 245.51C344.533 245.19 344.838 244.473 344.838 243.358C344.838 242.244 344.528 241.522 343.908 241.192C343.297 240.863 342.439 240.698 341.334 240.698V245.99ZM414.668 257.533C412.924 257.533 411.392 257.417 410.074 257.184C408.766 256.952 407.564 256.559 406.469 256.007V250.962H410.583C410.903 251.466 411.305 251.902 411.79 252.27C412.284 252.639 412.885 252.823 413.593 252.823C414.281 252.823 414.741 252.605 414.974 252.169C415.216 251.732 415.337 251.146 415.337 250.409C414.135 250.303 412.967 250.123 411.833 249.871C410.699 249.619 409.682 249.241 408.78 248.737C407.889 248.234 407.176 247.555 406.643 246.702C406.12 245.849 405.858 244.769 405.858 243.46C405.858 241.657 406.256 240.233 407.05 239.186C407.855 238.129 408.955 237.378 410.351 236.932C411.756 236.477 413.35 236.249 415.134 236.249C416.83 236.249 418.342 236.404 419.67 236.714C421.007 237.015 422.233 237.422 423.348 237.936V243.024H418.943C418.671 242.501 418.318 242.035 417.881 241.628C417.445 241.221 416.893 241.018 416.224 241.018C415.517 241.018 415.037 241.279 414.785 241.803C414.533 242.326 414.407 242.966 414.407 243.722C415.773 243.77 417.043 243.911 418.216 244.143C419.389 244.366 420.416 244.739 421.298 245.263C422.18 245.777 422.863 246.484 423.348 247.385C423.842 248.287 424.089 249.435 424.089 250.831C424.089 252.585 423.673 253.947 422.839 254.916C422.005 255.885 420.876 256.564 419.452 256.952C418.036 257.339 416.442 257.533 414.668 257.533ZM446.487 257.271V251.471L448.232 251.136V242.893L446.487 242.559V236.802H458.728V242.559L456.984 242.893V245.292H463.977V242.893L462.232 242.559V236.729H474.473V242.559L472.729 242.893V251.136L474.473 251.471V257.271H462.232V251.471L463.977 251.136V248.708H456.984V251.136L458.728 251.471V257.271H446.487ZM508.836 257.533C506.355 257.533 504.198 257.155 502.366 256.399C500.535 255.643 499.115 254.47 498.107 252.881C497.108 251.291 496.609 249.251 496.609 246.76C496.609 244.318 497.123 242.326 498.15 240.785C499.178 239.234 500.607 238.091 502.439 237.354C504.281 236.617 506.413 236.249 508.836 236.249C511.259 236.249 513.391 236.617 515.233 237.354C517.074 238.091 518.509 239.234 519.536 240.785C520.573 242.326 521.092 244.318 521.092 246.76C521.092 249.251 520.593 251.291 519.594 252.881C518.596 254.47 517.181 255.643 515.349 256.399C513.517 257.155 511.346 257.533 508.836 257.533ZM508.836 251.194C510.193 251.194 511.118 250.787 511.613 249.973C512.107 249.159 512.354 248.088 512.354 246.76C512.354 245.432 512.102 244.381 511.598 243.605C511.104 242.83 510.183 242.442 508.836 242.442C507.518 242.442 506.607 242.82 506.103 243.576C505.608 244.332 505.361 245.369 505.361 246.688C505.361 248.035 505.594 249.125 506.059 249.959C506.534 250.783 507.46 251.194 508.836 251.194ZM543.155 257.271V251.471L544.9 251.136V242.864L543.155 242.53V236.802H555.062C556.506 236.802 557.878 236.865 559.176 236.991C560.475 237.107 561.628 237.369 562.636 237.776C563.644 238.183 564.439 238.803 565.021 239.637C565.602 240.47 565.893 241.599 565.893 243.024C565.893 244.526 565.549 245.709 564.861 246.571C564.173 247.424 563.242 248.054 562.069 248.461C560.906 248.859 559.593 249.111 558.13 249.217C556.676 249.324 555.183 249.377 553.652 249.377V251.136L555.396 251.471V257.271H543.155ZM553.652 245.699C554.795 245.699 555.663 245.52 556.254 245.161C556.855 244.802 557.155 244.046 557.155 242.893C557.155 241.788 556.845 241.081 556.225 240.771C555.605 240.451 554.747 240.291 553.652 240.291V245.699Z" fill="white"/>
</svg>
